<svg id="Forma_1" data-name="Forma 1" xmlns="http://www.w3.org/2000/svg" width="29" height="31" viewBox="0 0 29 31">
  <path id="Forma_1-2" data-name="Forma 1" d="M248.346,1694a3.334,3.334,0,0,1-3.346-3.322v-6.643a1.116,1.116,0,0,1,2.231,0v6.643a1.112,1.112,0,0,0,1.115,1.108h22.307a1.112,1.112,0,0,0,1.116-1.108v-6.643a1.115,1.115,0,0,1,2.23,0v6.643a3.333,3.333,0,0,1-3.346,3.322Zm10.365-4.753-5.577-5.536a1.1,1.1,0,0,1,0-1.538,1.122,1.122,0,0,1,1.578-.027l3.673,3.646v-21.685a1.116,1.116,0,0,1,2.231,0v21.684l3.675-3.645a1.12,1.12,0,0,1,1.55,0,1.1,1.1,0,0,1,.027,1.565l-5.576,5.536,0,0a1.122,1.122,0,0,1-1.578,0Z" transform="translate(-245 -1663)" fill="#eaeaea"/>
</svg>
