<svg xmlns="http://www.w3.org/2000/svg" width="18" height="18.182" viewBox="0 0 18 18.182">
  <path id="Forma_1" data-name="Forma 1" d="M1870.2,702.817h-14.4a1.815,1.815,0,0,0-1.8,1.818v14.545a1.815,1.815,0,0,0,1.8,1.818h14.4a1.814,1.814,0,0,0,1.8-1.818V704.635A1.814,1.814,0,0,0,1870.2,702.817Zm-7.2,5.455a3.637,3.637,0,1,1-3.6,3.637A3.63,3.63,0,0,1,1863,708.271Zm-6.75,10.909a.428.428,0,0,1-.45-.455V711h1.89a3.118,3.118,0,0,0-.09.909,5.4,5.4,0,1,0,10.8,0,3.126,3.126,0,0,0-.09-.909h1.89v7.727a.428.428,0,0,1-.45.455Zm13.95-12.273a.427.427,0,0,1-.45.454h-1.8a.427.427,0,0,1-.45-.454v-1.818a.427.427,0,0,1,.45-.454h1.8a.427.427,0,0,1,.45.454Z" transform="translate(-1854 -702.817)" fill="#010101"/>
</svg>
