<svg xmlns="http://www.w3.org/2000/svg" width="18" height="14.546" viewBox="0 0 18 14.546">
  <path id="Forma_1" data-name="Forma 1" d="M1872,664.539a7.679,7.679,0,0,1-2.126.579,3.648,3.648,0,0,0,1.623-2.028,7.392,7.392,0,0,1-2.34.889,3.694,3.694,0,0,0-6.383,2.509,3.76,3.76,0,0,0,.086.837,10.464,10.464,0,0,1-7.606-3.839,3.658,3.658,0,0,0,1.134,4.9,3.655,3.655,0,0,1-1.667-.452v.041a3.692,3.692,0,0,0,2.957,3.606,3.711,3.711,0,0,1-.968.12,3.279,3.279,0,0,1-.7-.062,3.722,3.722,0,0,0,3.448,2.556,7.438,7.438,0,0,1-4.575,1.566,6.971,6.971,0,0,1-.883-.051,10.514,10.514,0,0,0,16.164-8.8c0-.163-.006-.319-.014-.474A7.34,7.34,0,0,0,1872,664.539Z" transform="translate(-1854 -662.817)" fill="#de2d27"/>
</svg>
