<svg xmlns="http://www.w3.org/2000/svg" width="17.999" height="14.546" viewBox="0 0 17.999 14.546">
  <path id="Forma_1" data-name="Forma 1" d="M1854,675.716a6.943,6.943,0,0,0,.883.05,7.44,7.44,0,0,0,4.576-1.566,3.724,3.724,0,0,1-3.449-2.556,3.327,3.327,0,0,0,.7.062,3.7,3.7,0,0,0,.968-.121,3.691,3.691,0,0,1-2.956-3.605v-.041a3.646,3.646,0,0,0,1.667.453,3.658,3.658,0,0,1-1.134-4.9,10.464,10.464,0,0,0,7.606,3.839,3.783,3.783,0,0,1-.086-.837,3.694,3.694,0,0,1,6.384-2.509,7.4,7.4,0,0,0,2.34-.889,3.649,3.649,0,0,1-1.624,2.029,7.658,7.658,0,0,0,2.126-.58,7.335,7.335,0,0,1-1.849,1.906c.008.156.014.311.014.474a10.514,10.514,0,0,1-16.164,8.8Z" transform="translate(-1854 -662.817)" fill="#010101"/>
</svg>
